<svg xmlns="http://www.w3.org/2000/svg" width="80" height="91.94" viewBox="0 0 60 95" fill="none">
    <path d="M28.4285 63.1259C42.344 63.1259 53.6248 51.8451 53.6248 37.9296C53.6248 24.0141 42.344 12.7333 28.4285 12.7333C14.513 12.7333 3.23218 24.0141 3.23218 37.9296C3.23218 51.8451 14.513 63.1259 28.4285 63.1259Z" stroke="white" stroke-width="6" stroke-linecap="round" stroke-linejoin="round"/>
    <path d="M14.7866 59.1306L10.4313 91.9218L28.4286 81.1234L46.426 91.9218L42.0706 59.0946" stroke="white" stroke-width="6" stroke-linecap="round" stroke-linejoin="round"/>
    <path fill-rule="evenodd" clip-rule="evenodd" d="M212.602 0.734985C213.206 0.734985 213.786 0.975164 214.214 1.40268C214.641 1.83021 214.881 2.41005 214.881 3.01465V9.85365H221.72C222.325 9.85365 222.905 10.0938 223.332 10.5214C223.76 10.9489 224 11.5287 224 12.1333C224 12.7379 223.76 13.3178 223.332 13.7453C222.905 14.1728 222.325 14.413 221.72 14.413H214.881V21.252C214.881 21.8566 214.641 22.4364 214.214 22.864C213.786 23.2915 213.206 23.5317 212.602 23.5317C211.997 23.5317 211.417 23.2915 210.99 22.864C210.562 22.4364 210.322 21.8566 210.322 21.252V14.413H203.483C202.878 14.413 202.299 14.1728 201.871 13.7453C201.444 13.3178 201.203 12.7379 201.203 12.1333C201.203 11.5287 201.444 10.9489 201.871 10.5214C202.299 10.0938 202.878 9.85365 203.483 9.85365H210.322V3.01465C210.322 2.41005 210.562 1.83021 210.99 1.40268C211.417 0.975164 211.997 0.734985 212.602 0.734985Z" fill="white" fill-opacity="0.8"/>
  </svg>