<svg xmlns="http://www.w3.org/2000/svg" width="82" height="91.187px" viewBox="0 0 82 91.187px" fill="none">
  <path d="M40.1394 52.3275C45.3899 52.3275 50.4254 50.2417 54.1381 46.5291C57.8507 42.8164 59.9365 37.7809 59.9365 32.5304C59.9365 27.2799 57.8507 22.2444 54.1381 18.5317C50.4254 14.819 45.3899 12.7333 40.1394 12.7333C34.8889 12.7333 29.8534 14.819 26.1407 18.5317C22.428 22.2444 20.3423 27.2799 20.3423 32.5304C20.3423 37.7809 22.428 42.8164 26.1407 46.5291C29.8534 50.2417 34.8889 52.3275 40.1394 52.3275ZM53.3375 32.5304C53.3375 36.0307 51.9469 39.3877 49.4718 41.8628C46.9967 44.3379 43.6397 45.7285 40.1394 45.7285C36.639 45.7285 33.2821 44.3379 30.8069 41.8628C28.3318 39.3877 26.9413 36.0307 26.9413 32.5304C26.9413 29.03 28.3318 25.6731 30.8069 23.1979C33.2821 20.7228 36.639 19.3323 40.1394 19.3323C43.6397 19.3323 46.9967 20.7228 49.4718 23.1979C51.9469 25.6731 53.3375 29.03 53.3375 32.5304ZM79.7336 85.3227C79.7336 91.9217 73.1346 91.9217 73.1346 91.9217H7.1442C7.1442 91.9217 0.545166 91.9217 0.545166 85.3227C0.545166 78.7236 7.1442 58.9265 40.1394 58.9265C73.1346 58.9265 79.7336 78.7236 79.7336 85.3227ZM73.1346 85.2963C73.128 83.6729 72.1183 78.7896 67.6442 74.3155C63.3416 70.0129 55.2446 65.5256 40.1394 65.5256C25.0276 65.5256 16.9372 70.0129 12.6346 74.3155C8.16045 78.7896 7.1574 83.6729 7.1442 85.2963H73.1346Z" fill="white"/>
</svg>